# xmcd CD database file
#
# Track frame offsets:
#	150
#	15020
#	30740
#	43782
#	56787
#	69530
#	80042
#	90990
#	103782
#	115880
#	129815
#	142697
#	154870
#	167870
#	180460
#	193285
#	208230
#	220865
#	233390
#	243582
#	256102
#	266962
#	281347
#	294287
#	306667
#	320135
#	335120
#
# Disc length: 4640 seconds
#
# Revision: 1
# Processed by: cddbd v1.5.2PL0 Copyright (c) Steve Scherf et al.
# Submitted via: CDex 1.51
#
DISCID=8d121e1b
DTITLE=Elmore James - Best Blues Masters Vol. 1
DYEAR=1900
DGENRE=Blues
TTITLE0=I Believe (Dust My Broom)
TTITLE1=I Held My Baby Last Night
TTITLE2=Baby What's Wrong
TTITLE3=Sinful Woman
TTITLE4=Early In The Morning
TTITLE5=Hawaiian Boogie
TTITLE6=Can't Stop Lovin'
TTITLE7=Make A Little Love
TTITLE8=Strange Kinda Feeling
TTITLE9=Please Find My Baby
TTITLE10=Hand In Hand
TTITLE11=Make My Dreams Come True
TTITLE12=Sho' Nuff I Do
TTITLE13=Dark And Dreary
TTITLE14=Rock My Baby Right
TTITLE15=Sunny Land
TTITLE16=Standing At The Crossroads
TTITLE17=Late Hours At Midnight
TTITLE18=The Way You Treat Me (aka Mean and Evil)
TTITLE19=Happy Home
TTITLE20=No Love In My Heart (For You)
TTITLE21=Dust My Blues
TTITLE22=I Was A Fool
TTITLE23=Blues Before Sunrise
TTITLE24=Goobye Baby
TTITLE25=Wild About You
TTITLE26=Long Tall Woman
EXTD=
EXTT0=
EXTT1=
EXTT2=
EXTT3=
EXTT4=
EXTT5=
EXTT6=
EXTT7=
EXTT8=
EXTT9=
EXTT10=
EXTT11=
EXTT12=
EXTT13=
EXTT14=
EXTT15=
EXTT16=
EXTT17=
EXTT18=
EXTT19=
EXTT20=
EXTT21=
EXTT22=
EXTT23=
EXTT24=
EXTT25=
EXTT26=
PLAYORDER=
